<svg xmlns="http://www.w3.org/2000/svg" viewBox="0 0 1024 1024" width="1024" height="1024">
  <title>RECON</title>
  <defs>
    <linearGradient id="body" x1="0" y1="0" x2="0" y2="1">
      <stop offset="0" stop-color="#67a3e1"/>
      <stop offset="1" stop-color="#3f8bd9"/>
    </linearGradient>
  </defs>
  <path d="M 1004.95,484.62 A 30.72,30.72 0 0 1 1004.95,539.38 L 779.37,982.85 A 30.72,30.72 0 0 1 734.72,1010.23 L 289.28,1010.23 A 30.72,30.72 0 0 1 244.63,982.85 L 19.05,539.38 A 30.72,30.72 0 0 1 19.05,484.62 L 244.63,41.15 A 30.72,30.72 0 0 1 289.28,13.77 L 734.72,13.77 A 30.72,30.72 0 0 1 779.37,41.15 Z" fill="url(#body)"/>
  <path d="M 945.38,512.00 L 728.69,937.99 L 295.31,937.99 L 78.62,512.00 L 295.31,86.01 L 728.69,86.01 Z" fill="none" stroke="#0c1118" stroke-opacity=".20"
        stroke-width="17.4" stroke-linejoin="round"/>
  <path d="M 301.06,263.68 L 571.60,263.68 A 139.06,139.06 0 0 1 571.60,541.80 L 428.03,541.80 L 428.03,760.32 L 301.06,760.32 Z M 505.01,340.66 L 505.01,464.82 L 571.60,464.82 A 62.08,62.08 0 0 0 571.60,340.66 Z M 370.89,460.97 L 523.26,460.97 L 707.61,760.32 L 555.24,760.32 Z" fill="#0c1118" fill-rule="nonzero"/>
</svg>
